<svg xmlns="http://www.w3.org/2000/svg" xmlns:xlink="http://www.w3.org/1999/xlink" width="500" zoomAndPan="magnify" viewBox="0 0 375 374.999991" height="500" preserveAspectRatio="xMidYMid meet" version="1.0"><defs><clipPath id="60d07c9a2a"><path d="M 37.5 85.6875 L 337.5 85.6875 L 337.5 289.6875 L 37.5 289.6875 Z M 37.5 85.6875 " clip-rule="nonzero"/></clipPath></defs><path fill="#f9b233" d="M 203.574219 282.511719 C 181.339844 282.511719 159.71875 274.585938 142.671875 260.199219 L 135.195312 253.886719 L 203.574219 253.886719 C 204.558594 253.886719 205.359375 253.078125 205.359375 252.09375 C 205.359375 251.109375 204.558594 250.304688 203.574219 250.304688 L 132.566406 250.304688 L 131.492188 249.046875 C 125.757812 242.289062 121 234.785156 117.355469 226.734375 L 115.066406 221.679688 L 235.707031 221.679688 C 236.691406 221.679688 237.496094 220.875 237.496094 219.886719 C 237.496094 218.902344 236.691406 218.097656 235.707031 218.097656 L 113.890625 218.097656 L 113.109375 215.570312 C 110.339844 206.554688 108.929688 197.167969 108.929688 187.679688 C 108.929688 135.398438 151.386719 92.863281 203.574219 92.863281 C 225.808594 92.863281 247.429688 100.789062 264.472656 115.175781 L 271.953125 121.488281 L 203.574219 121.488281 C 202.589844 121.488281 201.785156 122.296875 201.785156 123.28125 C 201.785156 124.265625 202.589844 125.070312 203.574219 125.070312 L 274.574219 125.070312 L 275.648438 126.328125 C 290.203125 143.460938 298.214844 165.253906 298.214844 187.6875 C 298.214844 239.976562 255.753906 282.511719 203.574219 282.511719 Z M 203.574219 282.511719 " fill-opacity="1" fill-rule="nonzero"/><g clip-path="url(#60d07c9a2a)"><path fill="#1d1d1b" d="M 112.5 284.300781 C 112.5 287.265625 110.101562 289.667969 107.144531 289.667969 L 75.003906 289.667969 C 72.046875 289.667969 69.648438 287.265625 69.648438 284.300781 C 69.648438 281.339844 72.046875 278.933594 75.003906 278.933594 L 107.144531 278.933594 C 110.101562 278.933594 112.5 281.339844 112.5 284.300781 Z M 337.5 123.292969 C 337.5 126.257812 335.101562 128.660156 332.144531 128.660156 L 286.488281 128.660156 C 298.351562 145.335938 305.359375 165.703125 305.359375 187.695312 C 305.359375 243.921875 259.695312 289.667969 203.574219 289.667969 C 174.371094 289.667969 148.023438 277.265625 129.441406 257.464844 L 42.855469 257.464844 C 39.898438 257.464844 37.5 255.0625 37.5 252.101562 C 37.5 249.136719 39.898438 246.734375 42.855469 246.734375 L 120.660156 246.734375 C 115.953125 240.121094 112.019531 232.917969 108.976562 225.265625 L 75.003906 225.265625 C 72.046875 225.265625 69.648438 222.863281 69.648438 219.902344 C 69.648438 216.9375 72.046875 214.535156 75.003906 214.535156 L 105.390625 214.535156 C 103.054688 205.980469 101.789062 196.988281 101.789062 187.699219 C 101.789062 131.46875 147.445312 85.722656 203.574219 85.722656 C 232.777344 85.722656 259.125 98.121094 277.707031 117.921875 L 332.152344 117.921875 C 335.101562 117.921875 337.5 120.332031 337.5 123.292969 Z M 272.929688 128.660156 L 203.574219 128.660156 C 200.617188 128.660156 198.21875 126.257812 198.21875 123.292969 C 198.21875 120.332031 200.617188 117.929688 203.574219 117.929688 L 262.171875 117.929688 C 246.324219 104.542969 225.878906 96.457031 203.574219 96.457031 C 153.359375 96.457031 112.5 137.386719 112.5 187.699219 C 112.5 197.035156 113.914062 206.046875 116.523438 214.535156 L 235.714844 214.535156 C 238.671875 214.535156 241.070312 216.9375 241.070312 219.902344 C 241.070312 222.863281 238.671875 225.265625 235.714844 225.265625 L 120.613281 225.265625 C 124.148438 233.066406 128.742188 240.289062 134.21875 246.734375 L 203.574219 246.734375 C 206.53125 246.734375 208.929688 249.136719 208.929688 252.101562 C 208.929688 255.0625 206.53125 257.464844 203.574219 257.464844 L 144.976562 257.464844 C 160.824219 270.851562 181.269531 278.933594 203.574219 278.933594 C 253.789062 278.933594 294.648438 238.007812 294.648438 187.695312 C 294.640625 165.195312 286.457031 144.582031 272.929688 128.660156 Z M 332.144531 85.722656 L 300.003906 85.722656 C 297.046875 85.722656 294.648438 88.125 294.648438 91.085938 C 294.648438 94.050781 297.046875 96.453125 300.003906 96.453125 L 332.144531 96.453125 C 335.101562 96.453125 337.5 94.050781 337.5 91.085938 C 337.5 88.125 335.101562 85.722656 332.144531 85.722656 Z M 332.144531 85.722656 " fill-opacity="1" fill-rule="nonzero"/></g></svg>